<svg width="32" height="32" viewBox="0 0 32 32" fill="none" xmlns="http://www.w3.org/2000/svg">
<path fill-rule="evenodd" clip-rule="evenodd" d="M11.4953 28.4458C12.7771 27.7057 13.2163 26.0666 12.4762 24.7848C11.7362 23.503 10.0971 23.0638 8.81528 23.8039C7.53346 24.5439 7.09427 26.183 7.83433 27.4648C8.5744 28.7466 10.2135 29.1858 11.4953 28.4458ZM10.7753 27.1986C11.3684 26.8562 11.5716 26.0978 11.2292 25.5048C10.8868 24.9117 10.1284 24.7085 9.53533 25.0509C8.94225 25.3933 8.73904 26.1517 9.08146 26.7448C9.42387 27.3378 10.1822 27.541 10.7753 27.1986Z" fill="white"/>
<path fill-rule="evenodd" clip-rule="evenodd" d="M23.1896 8.19186C24.4714 7.4518 24.9106 5.81273 24.1706 4.53091C23.4305 3.24908 21.7914 2.8099 20.5096 3.54996C19.2278 4.29002 18.7886 5.92908 19.5287 7.21091C20.2687 8.49273 21.9078 8.93192 23.1896 8.19186ZM22.4697 6.94472C23.0627 6.60231 23.266 5.84393 22.9235 5.25085C22.5811 4.65777 21.8227 4.45456 21.2297 4.79698C20.6366 5.1394 20.4334 5.89777 20.7758 6.49085C21.1182 7.08393 21.8766 7.28714 22.4697 6.94472Z" fill="white"/>
<path fill-rule="evenodd" clip-rule="evenodd" d="M18.262 14.7444C20.1897 18.0898 21.5287 21.2912 22.1557 23.7405C22.4729 24.9799 22.5863 25.9449 22.5459 26.6046C22.5273 26.9082 22.4827 27.0799 22.4489 27.17C22.354 27.1542 22.183 27.107 21.9108 26.9713C21.3193 26.6765 20.5402 26.0957 19.6256 25.2013C17.8111 23.427 15.6991 20.6527 13.7597 17.2936C11.8204 13.9346 10.4737 10.7184 9.84443 8.25989C9.52719 7.02054 9.41376 6.05549 9.45415 5.39581C9.47274 5.09226 9.51736 4.92056 9.55115 4.83039C9.64613 4.84622 9.81713 4.89343 10.0893 5.0291C10.6808 5.32396 11.4598 5.90472 12.3745 6.79913C13.728 8.12263 15.2471 10.0026 16.7365 12.2667L17.5391 10.8765C14.0628 5.76343 10.4279 2.61077 8.8092 3.5453C6.88318 4.65729 8.54128 11.135 12.5127 18.0136C16.4841 24.8923 21.2649 29.5671 23.1909 28.4551C25.1169 27.3431 23.4588 20.8654 19.4874 13.9868C19.3558 13.7588 19.2233 13.5333 19.09 13.3103L18.262 14.7444ZM17.9367 14.1879L18.7589 12.7639C18.7589 12.7638 18.7589 12.7638 18.7589 12.7638L17.9367 14.1879C17.9367 14.1879 17.9367 14.1879 17.9367 14.1879Z" fill="white"/>
<path fill-rule="evenodd" clip-rule="evenodd" d="M20.6397 6.62634L20.5342 6.80903L20.5358 6.81178C20.8084 7.28385 21.3444 7.50891 21.8509 7.40842L21.8868 7.34634L20.6397 6.62634ZM20.9423 8.98216C20.4811 8.84768 20.0492 8.61114 19.6836 8.28242L14.4446 17.3566C14.7236 17.8311 15.0091 18.2983 15.2994 18.756L20.9423 8.98216ZM14.9839 19.3024L14.9839 19.3025C14.6919 18.8483 14.4045 18.3844 14.1233 17.9131L14.1233 17.9131C14.4046 18.3844 14.692 18.8483 14.9839 19.3024ZM12.9849 19.8849C13.2734 20.3455 13.5673 20.7981 13.865 21.2405L12.407 23.7657C12.0481 23.4289 11.6213 23.1835 11.1636 23.0395L12.9849 19.8849Z" fill="white"/>
</svg>
