<svg viewBox="0 0 77 77" xmlns="http://www.w3.org/2000/svg" fill-rule="evenodd" clip-rule="evenodd" stroke-linejoin="round" stroke-miterlimit="2">
    <path d="M75.661 18.743a3.155 3.155 0 000-4.456L62.294.921a3.155 3.155 0 00-4.456 0l-6.455 6.455c-.865.866-2.157 1.165-3.29.74-12.878-4.928-27.803-1.937-37.738 7.998-13.807 13.807-13.807 36.289 0 50.096 6.912 6.912 15.98 10.359 25.048 10.359 9.069 0 18.137-3.447 25.049-10.359 9.934-9.934 12.926-24.859 7.997-37.738-.44-1.133-.126-2.424.741-3.29l6.471-6.439zm-10.014-1.118l-6.124 6.124a2.744 2.744 0 00-.472 3.275 29.246 29.246 0 013.51 11.021c.378 3.463-1.81 6.738-5.148 7.698-1.968.567-4.565.976-7.935.976-11.288 0-16.436-9.147-26.449-9.147-4.865 0-8.596 1.087-11.131 2.204-1.936.851-4.014-.74-3.7-2.849a27.015 27.015 0 013.149-9.163c5.164-9.21 14.579-14.091 24.088-14.091 4.566 0 9.163 1.118 13.335 3.448l.787.425a2.768 2.768 0 003.291-.456l6.124-6.125a1.568 1.568 0 012.22 0l4.455 4.456c.614.598.614 1.59 0 2.204z" fill="#fff" fill-opacity=".87" fill-rule="nonzero" />
</svg>