<svg viewBox="0 0 83 94" xmlns="http://www.w3.org/2000/svg" fill-rule="evenodd" clip-rule="evenodd" stroke-linejoin="round" stroke-miterlimit="2">
    <path d="M45.956 80.438c1.632-7.117 2.766-17.083 3.04-28.349l2.499.06c-.277 11.376-1.422 21.518-3.102 28.847-.837 3.655-1.823 6.678-2.936 8.816-.556 1.067-1.175 1.976-1.874 2.634-.705.661-1.57 1.138-2.573 1.138-1.153 0-2.117-.624-2.878-1.446-.764-.825-1.443-1.97-2.053-3.327-1.224-2.723-2.29-6.575-3.156-11.212l2.458-.459c.85 4.555 1.872 8.185 2.978 10.646.555 1.235 1.102 2.108 1.607 2.653.507.548.855.645 1.044.645.165 0 .448-.073.86-.46.418-.392.883-1.033 1.369-1.967.971-1.864 1.899-4.65 2.717-8.219z" fill="url(#_Linear1)" />
    <path d="M36.845 10.083c-1.496 5.232-2.684 12.682-3.335 21.43l-2.493-.185c.658-8.841 1.865-16.476 3.425-21.932.777-2.719 1.662-4.968 2.654-6.565C38.039 1.313 39.323 0 41.009 0c1.004 0 1.869.477 2.573 1.138.7.658 1.319 1.567 1.875 2.634 1.113 2.138 2.098 5.161 2.936 8.815 1.68 7.33 2.825 17.472 3.102 28.847l-2.5.061c-.273-11.267-1.408-21.232-3.039-28.349-.818-3.569-1.746-6.355-2.717-8.219-.486-.934-.951-1.575-1.369-1.967-.412-.387-.695-.46-.861-.46-.292 0-.926.26-1.789 1.65-.815 1.312-1.624 3.308-2.375 5.933z" fill="url(#_Linear2)" />
    <path d="M33.51 31.514c-.356 4.77-.55 9.914-.55 15.278 0 11.711.929 22.358 2.421 30.348l-2.458.459c-1.526-8.175-2.464-18.98-2.464-30.807 0-5.424.198-10.63.558-15.464l2.493.186z" fill="url(#_Linear3)" />
    <path d="M32.343 51.039c-8.109-4.951-15.116-9.971-20.319-14.408l-1.622 1.903c5.325 4.54 12.444 9.636 20.639 14.638l1.302-2.133z" fill="url(#_Linear4)" />
    <path d="M67.624 67.899c-6.979-2.145-16.175-6.145-26.069-11.541l-1.197 2.195C50.347 64 59.702 68.079 66.889 70.289c3.584 1.102 6.693 1.759 9.102 1.864 1.201.052 2.298-.029 3.217-.306.925-.279 1.77-.79 2.272-1.659.847-1.467.345-3.243-.506-4.826-.896-1.666-2.414-3.567-4.397-5.612-3.979-4.102-10.036-8.992-17.416-14.006l-1.405 2.067c7.304 4.962 13.21 9.744 17.027 13.68 1.915 1.975 3.252 3.684 3.989 5.055.781 1.453.69 2.137.543 2.392-.083.143-.287.352-.829.515-.548.166-1.335.248-2.387.203-2.099-.092-4.976-.681-8.475-1.757z" fill="url(#_Linear5)" />
    <path d="M44.983 39.82a207.703 207.703 0 0112.773 7.991l1.405-2.068a209.67 209.67 0 00-12.928-8.088c-10.943-6.318-21.414-11.128-29.5-13.814-4.033-1.34-7.535-2.172-10.233-2.376-1.345-.102-2.563-.053-3.574.21-1.012.265-1.95.784-2.491 1.721-.58 1.005-.517 2.163-.179 3.241.34 1.082 1.003 2.253 1.888 3.472 1.776 2.445 4.622 5.325 8.258 8.425l1.622-1.903c-3.572-3.045-6.249-5.777-7.857-7.991-.806-1.111-1.3-2.032-1.525-2.751-.227-.724-.137-1.079-.042-1.243.089-.154.321-.385.957-.552.639-.166 1.551-.227 2.755-.136 2.402.181 5.681.943 9.633 2.256 7.884 2.619 18.199 7.348 29.038 13.606z" fill="url(#_Linear6)" />
    <path d="M41.893 37.098c8.397-4.566 16.288-8.124 22.735-10.39l-.829-2.359c-6.601 2.32-14.615 5.939-23.1 10.553l1.194 2.196z" fill="url(#_Linear7)" />
    <path d="M9.392 59.384c5.31-4.946 13.318-10.883 22.882-16.734l-1.305-2.132C21.313 46.425 13.157 52.46 7.688 57.555c-2.726 2.54-4.836 4.893-6.12 6.917C.926 65.482.453 66.469.236 67.4c-.219.938-.197 1.921.303 2.787.845 1.465 2.631 1.919 4.424 1.974 1.886.059 4.286-.303 7.041-.995 5.529-1.388 12.775-4.179 20.79-8.051l-1.087-2.251c-7.932 3.832-15.009 6.546-20.312 7.877-2.66.668-4.804.969-6.355.922-1.644-.051-2.19-.472-2.336-.726-.083-.142-.161-.422-.034-.969.13-.554.448-1.273 1.009-2.156 1.118-1.763 3.051-3.948 5.713-6.428z" fill="url(#_Linear8)" />
    <path d="M45.087 53.763a206.855 206.855 0 01-13.38 7.101l1.088 2.252a209.835 209.835 0 0013.542-7.188C57.28 49.61 66.681 42.947 73.05 37.288c3.177-2.823 5.648-5.44 7.174-7.674.76-1.114 1.327-2.193 1.604-3.201.278-1.009.297-2.08-.244-3.017-.574-.994-1.591-1.517-2.679-1.767-1.09-.25-2.414-.268-3.885-.12-2.953.295-6.798 1.286-11.221 2.84l.829 2.359c4.343-1.526 7.974-2.445 10.641-2.712 1.337-.134 2.358-.095 3.077.07.723.166.979.417 1.073.58.089.153.173.47-.001 1.104-.175.637-.578 1.457-1.259 2.454-1.358 1.99-3.657 4.449-6.77 7.215-6.21 5.518-15.463 12.086-26.302 18.344z" fill="url(#_Linear9)" />
    <circle cx="34.549" cy="77.26" r="3.266" fill="#fff" />
    <path d="M14.169 38.787a3.266 3.266 0 10-4.461 1.195 3.268 3.268 0 004.461-1.195zM61.389 27.595a3.267 3.267 0 004.461 1.196 3.268 3.268 0 001.195-4.461 3.267 3.267 0 00-4.461-1.196 3.267 3.267 0 00-1.195 4.461zM41.011 41.108a5.686 5.686 0 11-.001 11.371 5.686 5.686 0 01.001-11.371z" fill="#fff" />
    <defs>
        <linearGradient id="_Linear1" x1="0" y1="0" x2="1" y2="0" gradientUnits="userSpaceOnUse" gradientTransform="scale(42.4215) rotate(-73.458 1.976 .436)">
            <stop offset="0" stop-color="#fff" stop-opacity=".6" />
            <stop offset=".38" stop-color="#fff" stop-opacity=".6" />
            <stop offset=".99" stop-color="#fff" stop-opacity="0" />
            <stop offset="1" stop-color="#fff" stop-opacity="0" />
        </linearGradient>
        <linearGradient id="_Linear2" x1="0" y1="0" x2="1" y2="0" gradientUnits="userSpaceOnUse" gradientTransform="rotate(68.423 20.628 30.34) scale(42.3644)">
            <stop offset="0" stop-color="#fff" stop-opacity=".81" />
            <stop offset=".63" stop-color="#fff" stop-opacity=".81" />
            <stop offset="1" stop-color="#fff" stop-opacity="0" />
        </linearGradient>
        <linearGradient id="_Linear3" x1="0" y1="0" x2="1" y2="0" gradientUnits="userSpaceOnUse" gradientTransform="rotate(90 2.002 33.33) scale(46.3245)">
            <stop offset="0" stop-color="#fff" stop-opacity=".81" />
            <stop offset=".65" stop-color="#fff" />
            <stop offset="1" stop-color="#fff" />
        </linearGradient>
        <linearGradient id="_Linear4" x1="0" y1="0" x2="1" y2="0" gradientUnits="userSpaceOnUse" gradientTransform="rotate(35.199 -51.184 37.213) scale(25.0001)">
            <stop offset="0" stop-color="#fff" stop-opacity=".6" />
            <stop offset="1" stop-color="#fff" stop-opacity="0" />
        </linearGradient>
        <linearGradient id="_Linear5" x1="0" y1="0" x2="1" y2="0" gradientUnits="userSpaceOnUse" gradientTransform="scale(-45.921) rotate(9.448 8.313 -11.812)">
            <stop offset="0" stop-color="#fff" stop-opacity=".81" />
            <stop offset=".61" stop-color="#fff" stop-opacity=".81" />
            <stop offset="1" stop-color="#fff" stop-opacity="0" />
        </linearGradient>
        <linearGradient id="_Linear6" x1="0" y1="0" x2="1" y2="0" gradientUnits="userSpaceOnUse" gradientTransform="rotate(-159.656 33.04 17.458) scale(62.7131)">
            <stop offset="0" stop-color="#fff" stop-opacity=".81" />
            <stop offset=".48" stop-color="#fff" />
            <stop offset="1" stop-color="#fff" />
        </linearGradient>
        <linearGradient id="_Linear7" x1="0" y1="0" x2="1" y2="0" gradientUnits="userSpaceOnUse" gradientTransform="rotate(155.078 29.577 20.634) scale(27.013)">
            <stop offset="0" stop-color="#fff" stop-opacity=".6" />
            <stop offset="1" stop-color="#fff" stop-opacity="0" />
        </linearGradient>
        <linearGradient id="_Linear8" x1="0" y1="0" x2="1" y2="0" gradientUnits="userSpaceOnUse" gradientTransform="scale(44.3079) rotate(-46.202 1.852 .816)">
            <stop offset="0" stop-color="#fff" stop-opacity=".81" />
            <stop offset=".55" stop-color="#fff" stop-opacity=".81" />
            <stop offset="1" stop-color="#fff" stop-opacity="0" />
        </linearGradient>
        <linearGradient id="_Linear9" x1="0" y1="0" x2="1" y2="0" gradientUnits="userSpaceOnUse" gradientTransform="scale(-64.4036) rotate(-39.752 -1.12 1.606)">
            <stop offset="0" stop-color="#fff" />
            <stop offset=".52" stop-color="#fff" />
            <stop offset="1" stop-color="#fff" stop-opacity=".81" />
        </linearGradient>
    </defs>
</svg>