<svg viewBox="0 0 69 75" xmlns="http://www.w3.org/2000/svg" fill-rule="evenodd" clip-rule="evenodd" stroke-linejoin="round" stroke-miterlimit="2"><path d="M67.754 1.075V28.78c0 5.768.524 16.517-4.368 24.82-6.291 10.575-17.736 18.615-28.918 19.576C23.285 72.127 11.84 64.087 5.55 53.512.657 45.297 1.181 34.46 1.181 28.692V1.075h66.573z" fill="#142d51" fill-rule="nonzero"/><path d="M.018 0h68.899v28.868c0 .469.004.977.008 1.517.045 5.975.122 16.036-4.617 23.857C57.873 65.057 46.059 73.34 34.56 74.336l-.092.009-.093-.008c-11.586-.997-23.402-9.28-29.837-20.099l-.003-.003C-.112 46.347-.036 36.374.01 30.406c.004-.548.008-1.062.008-1.538V0zM2.17 2.152v26.716c0 .481-.003.992-.007 1.53-.039 6.034-.099 15.402 4.225 22.742 6.128 10.3 17.329 18.081 28.079 19.044 10.663-.963 21.865-8.743 27.994-19.046l.004-.008c4.404-7.265 4.345-16.709 4.307-22.756-.004-.53-.007-1.033-.007-1.506V2.152H2.17z" fill="#00b6fa"/><path d="M26.081 10.514l-6.029.088h-9.785v14.42l37.218 27.879c-.874.874-1.835 1.748-2.883 2.447L10.267 29.741v1.224c0 4.195-.349 12.148 3.233 18.178 3.931 6.817 10.746 12.148 17.735 13.808.35.088.699.175 1.049.175.698.175 1.397.262 2.096.35 3.408-.262 6.902-1.573 10.135-3.496.087 0 .087-.087.174-.087.35-.175.699-.437 1.049-.7.699-.437 1.398-.961 2.097-1.485 2.97-2.36 5.678-5.331 7.6-8.652a21.674 21.674 0 002.359-6.38c.262-1.224.437-2.36.524-3.583L25.294 14.535h6.029l27.17 20.363V10.514H26.081z" fill="url(#_Linear1)" fill-rule="nonzero"/><defs><linearGradient id="_Linear1" x1="0" y1="0" x2="1" y2="0" gradientUnits="userSpaceOnUse" gradientTransform="translate(10.214 37.023) scale(48.2351)"><stop offset="0" stop-color="#01aae4"/><stop offset="1" stop-color="#1f96f4"/></linearGradient></defs></svg>