<svg viewBox="0 0 86 86" xmlns="http://www.w3.org/2000/svg" fill-rule="evenodd" clip-rule="evenodd" stroke-linejoin="round" stroke-miterlimit="2">
    <path d="M25.891 61.835L6.319 64.032l11.484-26.523L6.034 21.458l28.616-3.267L42.424.328l17.033 23.156 19.572-2.197-11.441 26.395 11.683 15.936-28.459 3.239-7.889 18.134-17.032-23.156zm8.131-1.755c-.756.371-1.555.67-2.382.899l-.742.214 11.041 15.009 3.923-9.017-.713-.085a14.132 14.132 0 01-9.629-5.693l-1.098-1.513-.4.186zm-3.837-13.597l8.901 12.313a9.697 9.697 0 008.887 3.938l23.224-2.64-9.244-12.641a9.31 9.31 0 00-1.583-1.683l-.543-.457-6.618 14.952-11.512-15.237-11.512 1.455zm.399-15.009a9.628 9.628 0 00-7.831 5.764l-9.33 21.529 15.492-1.74a9.855 9.855 0 002.24-.528l.656-.243-9.586-13.24 18.901-2.397 4.494-10.743-15.036 1.598zm14.622 10.872l7.004 9.288 4.279-9.659 1.883-4.252c1.413-3.182.999-6.891-1.055-9.702L43.423 9.131l-6.248 14.353a10.137 10.137 0 00-.671 2.211l-.114.7 16.205-1.713-7.389 17.664zm17.018-14.71l.271.656c1.498 3.596 1.469 7.69-.1 11.229l-.756 1.712.371.256a14.083 14.083 0 011.969 1.613l.556.542 7.403-17.092-9.714 1.084zm-48.102-2.625l5.906 8.046.428-.556a14.181 14.181 0 019.657-5.436l1.855-.2.028-.456c.058-.928.214-1.855.471-2.768l.214-.77-18.559 2.14z" fill="#fff" fill-rule="nonzero" />
    <path d="M38.53 85.334C26.233 84.15 15.207 77.758 7.974 67.628l4.95-.557a38.186 38.186 0 002.582 2.868c5.364 5.393 12.083 9.032 19.444 10.53l3.58 4.865zM48.843 80.754c7.974-1.284 15.207-5.022 20.97-10.801a35.389 35.389 0 001.555-1.655l6.005-.685C70.169 77.729 59.142 84.135 46.86 85.334l1.983-4.58zM78.586 56.342c1.641-4.352 2.468-8.96 2.468-13.683 0-4.166-.656-8.261-1.94-12.17l2.411-5.55c2.525 5.579 3.809 11.528 3.809 17.72 0 6.178-1.27 12.127-3.795 17.692l-2.953-4.009zM3.823 60.423C1.284 54.844 0 48.866 0 42.674c0-6.235 1.298-12.241 3.866-17.848l2.938 4.009a38.636 38.636 0 00-2.539 13.839c0 4.18.656 8.289 1.955 12.213l-2.397 5.536zM8.16 17.449C15.378 7.49 26.333 1.17 38.515 0l-1.997 4.58C28.544 5.864 21.283 9.602 15.52 15.395c-.428.442-.87.898-1.312 1.383l-6.048.671zM72.409 18.262a41.666 41.666 0 00-2.596-2.882c-5.349-5.379-12.068-9.017-19.415-10.515L46.832 0C59.1 1.184 70.127 7.576 77.345 17.706l-4.936.556z" fill="#fff" fill-rule="nonzero" />
</svg>