<svg width="56" height="59" viewBox="0 0 56 59" fill="none" xmlns="http://www.w3.org/2000/svg">
<g filter="url(#filter0_d)">
<path d="M12.0001 24L28.0001 8L44.0001 24L28.0001 40L12.0001 24Z" fill="url(#paint0_linear)"/>
</g>
<path fill-rule="evenodd" clip-rule="evenodd" d="M12.8348 37.9572L48.1626 28.4912L43.1642 9.83712L32.6535 12.6534L31.4288 11.4287L42.776 8.38823L44.2249 8L44.6131 9.44889L49.6115 28.103L49.9997 29.5518L48.5508 29.9401L13.223 39.4061L11.7741 39.7944L11.3859 38.3455L6.38754 19.6914L5.99931 18.2425L7.4482 17.8543L22.0614 13.9387L19.9401 16.06L7.83643 19.3032L12.8348 37.9572Z" fill="#D5BC83"/>
<path fill-rule="evenodd" clip-rule="evenodd" d="M12.8348 37.9572L48.1626 28.4912L43.1642 9.83712L32.6535 12.6534L31.4288 11.4287L42.776 8.38823L44.2249 8L44.6131 9.44889L49.6115 28.103L49.9997 29.5518L48.5508 29.9401L13.223 39.4061L11.7741 39.7944L11.3859 38.3455L6.38754 19.6914L5.99931 18.2425L7.4482 17.8543L22.0614 13.9387L19.9401 16.06L7.83643 19.3032L12.8348 37.9572Z" fill="url(#paint1_angular)"/>
<defs>
<filter id="filter0_d" x="0.150303" y="2.56884" width="55.6996" height="55.6996" filterUnits="userSpaceOnUse" color-interpolation-filters="sRGB">
<feFlood flood-opacity="0" result="BackgroundImageFix"/>
<feColorMatrix in="SourceAlpha" type="matrix" values="0 0 0 0 0 0 0 0 0 0 0 0 0 0 0 0 0 0 127 0" result="hardAlpha"/>
<feOffset dy="6.41864"/>
<feGaussianBlur stdDeviation="5.9249"/>
<feColorMatrix type="matrix" values="0 0 0 0 0.68 0 0 0 0 1 0 0 0 0 0 0 0 0 0.4 0"/>
<feBlend mode="normal" in2="BackgroundImageFix" result="effect1_dropShadow"/>
<feBlend mode="normal" in="SourceGraphic" in2="effect1_dropShadow" result="shape"/>
</filter>
<linearGradient id="paint0_linear" x1="21.6001" y1="8" x2="36.889" y2="40" gradientUnits="userSpaceOnUse">
<stop stop-color="#64DAFB"/>
<stop offset="0.291667" stop-color="#30FFDF"/>
<stop offset="0.71875" stop-color="#FFFD38"/>
</linearGradient>
<radialGradient id="paint1_angular" cx="0" cy="0" r="1" gradientUnits="userSpaceOnUse" gradientTransform="translate(27.9995 23.8972) rotate(90) scale(15.8972 22.0002)">
<stop offset="0.00013659" stop-color="#FFF1C3"/>
<stop offset="0.2068" stop-color="#9B7C3A"/>
<stop offset="0.321793" stop-color="#FFF0CA"/>
<stop offset="0.399828" stop-color="#D3AD5F"/>
<stop offset="0.490214" stop-color="#FFECC4"/>
<stop offset="0.646492" stop-color="#997736"/>
<stop offset="0.791185" stop-color="#FFF2C0"/>
<stop offset="0.885516" stop-color="#CEA851"/>
</radialGradient>
</defs>
</svg>
