<svg width="17" height="17" viewBox="0 0 17 17" fill="none" xmlns="http://www.w3.org/2000/svg">
<path fill-rule="evenodd" clip-rule="evenodd" d="M7.66659 1.58398C4.30685 1.58398 1.58325 4.30759 1.58325 7.66732C1.58325 11.0271 4.30685 13.7507 7.66659 13.7507C9.07615 13.7507 10.3737 13.2712 11.4052 12.4666L14.9363 15.9976C15.2291 16.2905 15.704 16.2905 15.9969 15.9976C16.2898 15.7048 16.2898 15.2299 15.9969 14.937L12.4659 11.4059C13.2705 10.3745 13.7499 9.07688 13.7499 7.66732C13.7499 4.30759 11.0263 1.58398 7.66659 1.58398ZM10.9597 10.8551C11.7584 10.0302 12.2499 8.90618 12.2499 7.66732C12.2499 5.13601 10.1979 3.08398 7.66659 3.08398C5.13528 3.08398 3.08325 5.13601 3.08325 7.66732C3.08325 10.1986 5.13528 12.2507 7.66659 12.2507C8.90545 12.2507 10.0295 11.7591 10.8544 10.9605C10.87 10.9414 10.8867 10.923 10.9045 10.9052C10.9223 10.8874 10.9407 10.8708 10.9597 10.8551Z" fill="black" fill-opacity="0.667"/>
</svg>
