<svg width="720" height="973" viewBox="0 0 720 973" fill="none" xmlns="http://www.w3.org/2000/svg">
<mask id="mask0" mask-type="alpha" maskUnits="userSpaceOnUse" x="16" y="16" width="816" height="1148">
<path d="M831.753 16.4414V881.437L24.6154 1163.15L16.0552 213.031L336.972 101.023L831.753 16.4414Z" fill="url(#paint0_radial)"/>
</mask>
<g mask="url(#mask0)">
<rect width="1469.49" height="926.939" transform="matrix(-0.954197 0.29918 -0.299886 -0.953975 1114.62 798.504)" fill="url(#paint1_linear)"/>
<rect width="1469.49" height="926.939" transform="matrix(-0.954197 0.29918 -0.299886 -0.953975 1114.62 798.504)" fill="url(#paint2_radial)"/>
</g>
<mask id="mask1" mask-type="alpha" maskUnits="userSpaceOnUse" x="344" y="8" width="496" height="867">
<path d="M839.716 874.143V8.27539L344.935 93.2221V801.769L839.716 874.143Z" fill="#C4C4C4"/>
</mask>
<g mask="url(#mask1)">
<rect width="545.285" height="875.459" transform="matrix(1 1.78491e-07 1.71274e-07 -1 330.195 880.811)" fill="#A8FF89"/>
<rect width="545.285" height="875.459" transform="matrix(1 1.78491e-07 1.71274e-07 -1 330.195 880.811)" fill="url(#paint3_linear)"/>
<rect width="545.285" height="875.459" transform="matrix(1 1.78491e-07 1.71274e-07 -1 330.195 880.811)" fill="url(#paint4_radial)"/>
</g>
<defs>
<radialGradient id="paint0_radial" cx="0" cy="0" r="1" gradientUnits="userSpaceOnUse" gradientTransform="translate(662.561 488.729) rotate(161.262) scale(608.684 641.362)">
<stop stop-color="#C4C4C4"/>
<stop offset="1" stop-color="#C4C4C4" stop-opacity="0"/>
</radialGradient>
<linearGradient id="paint1_linear" x1="612.655" y1="885.766" x2="718.266" y2="225.576" gradientUnits="userSpaceOnUse">
<stop offset="0.220958" stop-color="#75FFEA"/>
<stop offset="1" stop-color="#75FFB4" stop-opacity="0"/>
</linearGradient>
<radialGradient id="paint2_radial" cx="0" cy="0" r="1" gradientUnits="userSpaceOnUse" gradientTransform="translate(297.196 8.52391) rotate(88.5711) scale(574.797 599.44)">
<stop offset="0.341522" stop-color="#FFFD68"/>
<stop offset="1" stop-color="#98FFB5" stop-opacity="0"/>
</radialGradient>
<linearGradient id="paint3_linear" x1="8.75423" y1="805.427" x2="352.626" y2="310.665" gradientUnits="userSpaceOnUse">
<stop stop-color="#64DAFB"/>
<stop offset="0.421875" stop-color="#30FFDF"/>
<stop offset="1" stop-color="white" stop-opacity="0"/>
</linearGradient>
<radialGradient id="paint4_radial" cx="0" cy="0" r="1" gradientUnits="userSpaceOnUse" gradientTransform="translate(496.064) rotate(110.573) scale(727.827 863.511)">
<stop offset="0.268205" stop-color="#FFFD38"/>
<stop offset="1" stop-color="#9EFFB9" stop-opacity="0"/>
</radialGradient>
</defs>
</svg>
