<?xml version="1.0" encoding="UTF-8" standalone="no"?>
<svg
   xmlns:dc="http://purl.org/dc/elements/1.1/"
   xmlns:cc="http://creativecommons.org/ns#"
   xmlns:rdf="http://www.w3.org/1999/02/22-rdf-syntax-ns#"
   xmlns:svg="http://www.w3.org/2000/svg"
   xmlns="http://www.w3.org/2000/svg"
   id="svg4"
   version="1.1"
   fill="none"
   viewBox="0 0 33 30"
   height="30"
   width="33">
  <metadata
     id="metadata10">
    <rdf:RDF>
      <cc:Work
         rdf:about="">
        <dc:format>image/svg+xml</dc:format>
        <dc:type
           rdf:resource="http://purl.org/dc/dcmitype/StillImage" />
        <dc:title></dc:title>
      </cc:Work>
    </rdf:RDF>
  </metadata>
  <defs
     id="defs8" />
  <path
     id="path2"
     fill="#CA0865"
     d="M32.6329 25.5221L19.6829 1.60009C19.4207 1.11722 19.0331 0.714054 18.5609 0.433123C18.0887 0.152192 17.5494 0.00390625 16.9999 0.00390625C16.4505 0.00390625 15.9112 0.152192 15.439 0.433123C14.9668 0.714054 14.5791 1.11722 14.3169 1.60009L1.36693 25.5221C1.11463 25.9827 0.987656 26.5014 0.998712 27.0265C1.00977 27.5516 1.15846 28.0645 1.42993 28.5141C1.69871 28.9691 2.08205 29.3458 2.54175 29.6065C3.00145 29.8672 3.52145 30.0029 4.04993 30.0001H29.9499C30.4762 30.0015 30.9938 29.8661 31.4521 29.6073C31.9103 29.3484 32.2934 28.975 32.5639 28.5235C32.8344 28.0721 32.983 27.5581 32.9951 27.0319C33.0072 26.5058 32.8824 25.9855 32.6329 25.5221ZM18.8479 10.0001L18.1339 20.0001H16.1339L15.4199 10.0001H18.8479ZM17.1339 26.0001C16.7823 26.0001 16.4385 25.8958 16.1461 25.7004C15.8537 25.5051 15.6258 25.2274 15.4913 24.9025C15.3567 24.5776 15.3215 24.2201 15.3901 23.8752C15.4587 23.5303 15.628 23.2135 15.8767 22.9649C16.1254 22.7162 16.4422 22.5469 16.7871 22.4783C17.132 22.4096 17.4895 22.4449 17.8143 22.5794C18.1392 22.714 18.4169 22.9419 18.6123 23.2343C18.8077 23.5267 18.9119 23.8704 18.9119 24.2221C18.9119 24.6936 18.7246 25.1459 18.3912 25.4793C18.0577 25.8128 17.6055 26.0001 17.1339 26.0001Z" />
</svg>
