<?xml version="1.0" encoding="UTF-8" standalone="no"?>
<svg
   xmlns:dc="http://purl.org/dc/elements/1.1/"
   xmlns:cc="http://creativecommons.org/ns#"
   xmlns:rdf="http://www.w3.org/1999/02/22-rdf-syntax-ns#"
   xmlns:svg="http://www.w3.org/2000/svg"
   xmlns="http://www.w3.org/2000/svg"
   id="svg6"
   version="1.1"
   fill="none"
   viewBox="0 0 16 16"
   height="16"
   width="16">
  <metadata
     id="metadata12">
    <rdf:RDF>
      <cc:Work
         rdf:about="">
        <dc:format>image/svg+xml</dc:format>
        <dc:type
           rdf:resource="http://purl.org/dc/dcmitype/StillImage" />
        <dc:title></dc:title>
      </cc:Work>
    </rdf:RDF>
  </metadata>
  <defs
     id="defs10" />
  <circle
     style="stroke:#000000;stroke-opacity:0.98617512"
     id="circle2"
     stroke-opacity="0.33"
     stroke="black"
     r="7.5"
     cy="8"
     cx="8" />
  <path
     style="fill:#000000;fill-opacity:1"
     id="path4"
     fill-opacity="0.33"
     fill="black"
     d="M7.29061 10.0497H8.44149V9.99211C8.46067 8.80287 8.76757 8.28497 9.61155 7.75749C10.4555 7.24439 10.9542 6.50591 10.9542 5.44615C10.9542 3.95001 9.8609 2.85667 8.17295 2.85667C6.61927 2.85667 5.38687 3.81574 5.31494 5.44615H6.52336C6.59529 4.31445 7.38652 3.8541 8.17295 3.8541C9.07447 3.8541 9.80336 4.44872 9.80336 5.3886C9.80336 6.15106 9.36698 6.69772 8.80593 7.03819C7.86605 7.60883 7.305 8.16509 7.29061 9.99211V10.0497ZM7.90441 12.8885C8.37915 12.8885 8.76757 12.5001 8.76757 12.0253C8.76757 11.5506 8.37915 11.1622 7.90441 11.1622C7.42968 11.1622 7.04126 11.5506 7.04126 12.0253C7.04126 12.5001 7.42968 12.8885 7.90441 12.8885Z" />
</svg>
